<svg width="26" height="26" viewBox="0 0 26 26" fill="none" xmlns="http://www.w3.org/2000/svg">
<path d="M3.06066 0.93934C2.47487 0.353553 1.52513 0.353553 0.93934 0.93934C0.353553 1.52513 0.353553 2.47487 0.93934 3.06066L3.06066 0.93934ZM22.9393 25.0607C23.5251 25.6464 24.4749 25.6464 25.0607 25.0607C25.6464 24.4749 25.6464 23.5251 25.0607 22.9393L22.9393 25.0607ZM25.0607 3.06066C25.6464 2.47487 25.6464 1.52513 25.0607 0.93934C24.4749 0.353553 23.5251 0.353553 22.9393 0.93934L25.0607 3.06066ZM0.93934 22.9393C0.353553 23.5251 0.353553 24.4749 0.93934 25.0607C1.52513 25.6464 2.47487 25.6464 3.06066 25.0607L0.93934 22.9393ZM0.93934 3.06066L22.9393 25.0607L25.0607 22.9393L3.06066 0.93934L0.93934 3.06066ZM22.9393 0.93934L0.93934 22.9393L3.06066 25.0607L25.0607 3.06066L22.9393 0.93934Z" fill="white"/>
</svg>
