<svg width="54" height="46" viewBox="0 0 54 46" fill="none" xmlns="http://www.w3.org/2000/svg">
<path d="M21.6831 43.4878C23.4265 44.733 25.7016 44.9542 27.6522 44.0681L49.3839 34.1954C52.0493 32.9845 53.4517 30.0268 52.7023 27.1968L46.7922 4.87872C46.0454 2.05872 43.3786 0.184494 40.4723 0.43721L14.541 2.69211C12.3576 2.88197 10.4515 4.24713 9.56887 6.25312L1.96444 23.5359C0.820149 26.1366 1.65686 29.1833 3.9689 30.8348L21.6831 43.4878Z" fill="#454545"/>
<g clip-path="url(#clip0)">
<path d="M35.0706 11H20.9299C19.3146 11 18.0002 12.3144 18.0002 13.9297V28.0703C18.0002 29.6856 19.3146 31 20.9299 31H35.0706C36.6859 31 38.0002 29.6856 38.0002 28.0703V13.9297C38.0002 12.3144 36.6859 11 35.0706 11ZM28.0393 26.2344C25.1314 26.2344 22.7659 23.8688 22.7659 20.9609C22.7659 18.0531 25.1314 15.6875 28.0393 15.6875C30.9472 15.6875 33.3127 18.0531 33.3127 20.9609C33.3127 23.8688 30.9472 26.2344 28.0393 26.2344ZM33.8987 16.8594C32.9294 16.8594 32.1409 16.0708 32.1409 15.1016C32.1409 14.1323 32.9294 13.3438 33.8987 13.3438C34.8679 13.3438 35.6565 14.1323 35.6565 15.1016C35.6565 16.0708 34.8679 16.8594 33.8987 16.8594Z" fill="#FF5916"/>
<path d="M33.8987 14.5156C33.5753 14.5156 33.3127 14.7782 33.3127 15.1016C33.3127 15.4249 33.5753 15.6875 33.8987 15.6875C34.222 15.6875 34.4846 15.4249 34.4846 15.1016C34.4846 14.7782 34.222 14.5156 33.8987 14.5156Z" fill="#FF5916"/>
<path d="M28.0393 16.8594C25.778 16.8594 23.9377 18.6996 23.9377 20.9609C23.9377 23.2223 25.778 25.0625 28.0393 25.0625C30.3007 25.0625 32.1409 23.2223 32.1409 20.9609C32.1409 18.6996 30.3007 16.8594 28.0393 16.8594Z" fill="#FF5916"/>
</g>
<defs>
<clipPath id="clip0">
<rect width="20" height="20" fill="white" transform="translate(18.0002 11)"/>
</clipPath>
</defs>
</svg>
