<svg width="54" height="46" viewBox="0 0 54 46" fill="none" xmlns="http://www.w3.org/2000/svg">
<path d="M21.6829 43.4878C23.4263 44.733 25.7014 44.9542 27.652 44.0681L49.3837 34.1954C52.0491 32.9845 53.4515 30.0268 52.702 27.1968L46.7919 4.87872C46.0452 2.05872 43.3783 0.184494 40.4721 0.43721L14.5407 2.69211C12.3574 2.88197 10.4513 4.24713 9.56863 6.25312L1.96419 23.5359C0.819905 26.1366 1.65662 29.1833 3.96866 30.8348L21.6829 43.4878Z" fill="#454545"/>
<g clip-path="url(#clip0)">
<path d="M36 11H20C19 11 18 12 18 13V28.7242C18 30 19 31 20.2773 31H36C37 31 38 30 38 29V13C38 12 37 11 36 11ZM34.5902 23.1869C34.9558 23.5595 35.7489 24.1847 35.605 24.8212C35.4723 25.4055 34.6001 25.1924 33.7533 25.2262C32.7865 25.2672 32.2135 25.2883 31.6321 24.8212C31.3583 24.5996 31.1974 24.3371 30.9349 24.0435C30.6964 23.7782 30.3957 23.3026 29.9865 23.3209C29.2511 23.3576 29.4812 24.3823 29.2201 25.0809C25.1329 25.7244 23.4915 23.1996 22.0435 20.7495C21.342 19.5626 20.3287 17.0137 20.3287 17.0137L23.2191 17.0038C23.2191 17.0038 24.1464 18.6904 24.3919 19.125C24.6008 19.4948 24.8309 19.7884 25.068 20.1186C25.267 20.3924 25.5817 20.9287 25.926 20.885C26.4863 20.813 26.588 18.6395 26.2408 17.9113C26.1025 17.6163 25.7708 17.5133 25.4278 17.4131C25.5436 16.682 28.6697 16.5296 29.1749 17.097C29.9088 17.9212 28.6669 20.216 29.6717 20.885C31.0831 20.1454 32.2883 17.049 32.2883 17.049L35.6727 17.0701C35.6727 17.0701 35.1435 18.744 34.5888 19.4863C34.2656 19.921 33.193 20.8892 33.2353 21.6076C33.2692 22.1763 34.1414 22.7296 34.5902 23.1869Z" fill="#FF5916"/>
</g>
<defs>
<clipPath id="clip0">
<rect width="20" height="20" fill="white" transform="translate(18 11)"/>
</clipPath>
</defs>
</svg>
