<svg width="55" height="43" viewBox="0 0 55 43" fill="none" xmlns="http://www.w3.org/2000/svg">
<path d="M28.4183 0.651516C27.3365 0.226342 26.1544 0.124579 25.0158 0.358596L5.77161 4.31382C2.56736 4.97239 0.481148 8.07627 1.08141 11.292L6.08576 38.101C6.6159 40.941 9.09477 43 11.9839 43H36.1269C38.4848 43 40.6241 41.6189 41.5948 39.4701L51.9039 16.6493C53.3164 13.5224 51.8239 9.84996 48.6305 8.59497L28.4183 0.651516Z" fill="#454545"/>
<path d="M25.4934 24.8113C25.6383 24.937 25.8192 25 26.0002 25C26.1813 25 26.3623 24.937 26.5071 24.8113C26.6906 24.6519 31.0002 20.863 31.0002 16.9336C31.0002 14.2132 28.7573 12 26.0003 12C23.2432 12 21.0002 14.2132 21.0002 16.9336C21.0001 20.863 25.3099 24.6519 25.4934 24.8113ZM26.0002 15.6445C26.716 15.6445 27.2965 16.2215 27.2965 16.9336C27.2965 17.6456 26.716 18.2226 26.0002 18.2226C25.2842 18.2226 24.7039 17.6455 24.7039 16.9336C24.7039 16.2215 25.2842 15.6445 26.0002 15.6445Z" fill="#FF5916"/>
<path d="M35.0002 24.6745L34.4308 22.5755C34.3384 22.2348 34.0425 22 33.7059 22H29.6421C29.4951 22.2297 29.3401 22.4604 29.1762 22.6922C28.0372 24.3021 26.8792 25.391 26.7508 25.5101C26.4202 25.8163 25.9956 25.9849 25.5549 25.9849C25.1146 25.9849 24.69 25.8165 24.3589 25.5099C24.2307 25.391 23.0726 24.3019 21.9336 22.6922C21.7697 22.4604 21.6147 22.2297 21.4677 22H17.4038C17.0672 22 16.7713 22.2348 16.6789 22.5755L16.0002 25.0771L31.1702 28L35.0002 24.6745Z" fill="#FF5916"/>
<path d="M36.9736 31.0485L35.6362 26L29.0002 32H36.3072C36.5247 32 36.7295 31.8901 36.8605 31.7031C36.9915 31.5161 37.0333 31.2737 36.9736 31.0485Z" fill="#FF5916"/>
<path d="M18.0002 26.4421L16.1286 26L15.0238 30.993C14.9711 31.2314 15.008 31.4879 15.1239 31.6858C15.2396 31.8837 15.4207 32 15.613 32H18.0002V26.4421Z" fill="#FF5916"/>
<path d="M19.0002 27V32H27.0101L31.0002 28.981L19.0002 27Z" fill="#FF5916"/>
</svg>
