<svg width="55" height="43" viewBox="0 0 55 43" fill="none" xmlns="http://www.w3.org/2000/svg">
<path d="M28.4183 42.3485C27.3365 42.7737 26.1544 42.8754 25.0158 42.6414L5.77161 38.6862C2.56736 38.0276 0.481148 34.9237 1.08141 31.708L6.08576 4.89902C6.6159 2.05897 9.09477 0 11.9839 0H36.1269C38.4848 0 40.6241 1.38107 41.5948 3.52991L51.9039 26.3507C53.3164 29.4776 51.8239 33.15 48.6305 34.405L28.4183 42.3485Z" fill="#454545"/>
<g clip-path="url(#clip0)">
<path d="M35.957 25.4963C35.9004 25.3259 35.5405 25.0748 34.8775 24.7437C34.6979 24.6393 34.442 24.4974 34.1109 24.3175C33.7794 24.1375 33.4786 23.9717 33.2089 23.8202C32.9386 23.6687 32.6854 23.5219 32.4489 23.3801C32.4111 23.3517 32.2927 23.2689 32.0938 23.1313C31.8948 22.9941 31.7269 22.8923 31.5894 22.8258C31.4521 22.7598 31.3171 22.7266 31.1845 22.7266C30.9951 22.7266 30.7586 22.8616 30.4746 23.1313C30.1907 23.4014 29.9302 23.6947 29.6935 24.0122C29.4569 24.3296 29.2059 24.6229 28.941 24.8928C28.6757 25.1628 28.4578 25.2977 28.2875 25.2977C28.202 25.2977 28.0955 25.2739 27.9678 25.2268C27.8401 25.1795 27.743 25.139 27.6763 25.1063C27.6102 25.0729 27.4969 25.0068 27.3358 24.9071C27.1744 24.8076 27.0846 24.7532 27.0657 24.7437C25.7684 24.0238 24.6559 23.1999 23.7277 22.2722C22.7999 21.3439 21.9759 20.2314 21.2563 18.934C21.2468 18.9151 21.1923 18.8251 21.0929 18.6642C20.9934 18.5031 20.9271 18.3896 20.8939 18.3232C20.8608 18.257 20.8206 18.1598 20.7733 18.032C20.726 17.9042 20.7023 17.7977 20.7023 17.7124C20.7023 17.5421 20.8373 17.3242 21.1072 17.059C21.377 16.794 21.6707 16.5429 21.9878 16.3063C22.3051 16.0698 22.5985 15.8093 22.8684 15.5253C23.1383 15.2412 23.2732 15.0046 23.2732 14.8152C23.2732 14.6827 23.2401 14.5476 23.1739 14.4104C23.1076 14.2728 23.0058 14.1049 22.8684 13.906C22.731 13.7071 22.6482 13.5889 22.6197 13.5508C22.4778 13.3142 22.3312 13.061 22.1795 12.7911C22.0278 12.5212 21.8623 12.2204 21.6823 11.889C21.5024 11.5578 21.3605 11.302 21.2562 11.1221C20.9249 10.4594 20.674 10.0994 20.5035 10.0427C20.4372 10.0143 20.3377 10 20.2053 10C19.9495 10 19.6157 10.0473 19.2038 10.1421C18.7918 10.2368 18.4676 10.3361 18.2308 10.4404C17.7573 10.6392 17.2555 11.2168 16.7251 12.173C16.2422 13.063 16.0007 13.9439 16.0007 14.8149C16.0007 15.0704 16.0173 15.319 16.0504 15.5607C16.0836 15.8021 16.1428 16.0744 16.2281 16.3775C16.3133 16.6805 16.382 16.9056 16.4339 17.0521C16.4859 17.1988 16.583 17.4615 16.7251 17.8404C16.867 18.2192 16.9523 18.4511 16.9807 18.5364C17.3121 19.4644 17.7051 20.2929 18.1595 21.0221C18.9073 22.2342 19.9278 23.4868 21.2203 24.7794C22.5129 26.072 23.7652 27.0924 24.9774 27.8404C25.7065 28.2949 26.5353 28.6878 27.4632 29.0194C27.5485 29.0477 27.7804 29.1328 28.1591 29.2752C28.5379 29.4172 28.8007 29.5143 28.9474 29.5664C29.0941 29.6185 29.3192 29.6873 29.6219 29.7726C29.9253 29.8579 30.1974 29.9171 30.4388 29.9505C30.6804 29.9832 30.929 30 31.1845 30C32.0556 30 32.9365 29.7585 33.8266 29.2756C34.7828 28.7454 35.3602 28.2435 35.5591 27.7696C35.6637 27.5331 35.7627 27.2088 35.8574 26.7968C35.9524 26.3849 35.9995 26.0512 35.9995 25.7955C35.9998 25.6625 35.9856 25.5632 35.957 25.4963Z" fill="#FF5916"/>
</g>
<defs>
<clipPath id="clip0">
<rect width="20" height="20" fill="white" transform="translate(16.0002 10)"/>
</clipPath>
</defs>
</svg>
