<svg width="54" height="46" viewBox="0 0 54 46" fill="none" xmlns="http://www.w3.org/2000/svg">
<path d="M21.6831 43.4878C23.4265 44.733 25.7016 44.9542 27.6522 44.0681L49.3839 34.1954C52.0493 32.9845 53.4517 30.0268 52.7023 27.1968L46.7922 4.87872C46.0454 2.05872 43.3786 0.184494 40.4723 0.43721L14.541 2.69211C12.3576 2.88197 10.4515 4.24713 9.56887 6.25312L1.96444 23.5359C0.820149 26.1366 1.65686 29.1833 3.9689 30.8348L21.6831 43.4878Z" fill="#454545"/>
<g clip-path="url(#clip0)">
<path d="M19.9198 17.9866C20.1728 18.1651 20.9355 18.6953 22.2078 19.577C23.4801 20.4586 24.4548 21.1375 25.1319 21.6136C25.2063 21.6658 25.3643 21.7792 25.6061 21.9541C25.8479 22.129 26.0489 22.2704 26.2087 22.3783C26.3687 22.4861 26.5622 22.607 26.7892 22.7409C27.0162 22.8747 27.2301 22.9753 27.431 23.0419C27.6319 23.1091 27.8179 23.1424 27.989 23.1424H28.0002H28.0115C28.1826 23.1424 28.3687 23.109 28.5696 23.0419C28.7704 22.9753 28.9846 22.8746 29.2113 22.7409C29.4382 22.6069 29.6316 22.4861 29.7916 22.3783C29.9516 22.2704 30.1524 22.129 30.3943 21.9541C30.636 21.7791 30.7943 21.6658 30.8687 21.6136C31.5531 21.1375 33.2943 19.9284 36.0918 17.9863C36.635 17.607 37.0887 17.1493 37.4532 16.6136C37.818 16.0781 38.0002 15.5163 38.0002 14.9286C38.0002 14.4374 37.8234 14.017 37.47 13.6673C37.1166 13.3176 36.698 13.1428 36.2145 13.1428H19.7859C19.213 13.1428 18.7721 13.3362 18.4634 13.7231C18.1546 14.11 18.0002 14.5936 18.0002 15.174C18.0002 15.6427 18.2049 16.1506 18.6141 16.6975C19.0232 17.2444 19.4586 17.6741 19.9198 17.9866Z" fill="#FF5916"/>
<path d="M36.884 19.1807C34.4438 20.8323 32.5909 22.1159 31.3262 23.0312C30.9021 23.3435 30.558 23.5874 30.2938 23.7621C30.0296 23.937 29.6782 24.1156 29.2391 24.2978C28.8002 24.4802 28.3912 24.5712 28.0116 24.5712H28.0003H27.989C27.6096 24.5712 27.2003 24.4802 26.7614 24.2978C26.3225 24.1156 25.9709 23.937 25.7067 23.7621C25.4427 23.5874 25.0985 23.3435 24.6744 23.0312C23.6699 22.2946 21.821 21.0109 19.1276 19.1807C18.7034 18.8981 18.3276 18.5742 18.0002 18.2097V27.0711C18.0002 27.5624 18.175 27.9826 18.5248 28.3323C18.8744 28.6822 19.2949 28.857 19.786 28.857H36.2146C36.7056 28.857 37.126 28.6822 37.4757 28.3323C37.8256 27.9825 38.0003 27.5625 38.0003 27.0711V18.2097C37.6803 18.5667 37.3083 18.8906 36.884 19.1807Z" fill="#FF5916"/>
</g>
<defs>
<clipPath id="clip0">
<rect width="20" height="20" fill="white" transform="translate(18.0002 11)"/>
</clipPath>
</defs>
</svg>
