<svg width="180" height="51" viewBox="0 0 180 51" fill="none" xmlns="http://www.w3.org/2000/svg">
<path fill-rule="evenodd" clip-rule="evenodd" d="M5.8781 23.9687L20.3966 9.61188H15.025C14.5831 9.5582 14.1347 9.61523 13.7206 9.77778C13.3064 9.94032 12.9398 10.2032 12.6539 10.5426L0.322402 22.7329C-0.145689 23.1524 -0.099647 23.3965 0.414485 23.3965C2.24655 23.465 4.0719 23.6561 5.8781 23.9687Z" fill="#FFAC8F"/>
<path fill-rule="evenodd" clip-rule="evenodd" d="M14.7719 27.5845L27.5255 14.9823L32.9507 9.64231L42.0363 0.633076H35.6365C35.3293 0.583493 35.0144 0.620051 34.727 0.738641C34.4396 0.85723 34.1912 1.05315 34.0097 1.30438L27.5255 7.71994L25.6071 9.6118L9.89917 25.1739C11.6033 25.8194 13.2361 26.6374 14.7719 27.615V27.5845Z" fill="#FF723E"/>
<path fill-rule="evenodd" clip-rule="evenodd" d="M21.049 33.1001L31.0708 23.1831L41.0465 13.3042L50.2164 4.26446C50.2164 1.41141 49.9862 0.633301 46.6942 0.633301L37.601 9.61203L27.5255 19.5901L17.4578 29.5071C18.7654 30.582 19.9678 31.7773 21.049 33.0772V33.1001Z" fill="#FF5916"/>
<path fill-rule="evenodd" clip-rule="evenodd" d="M25.3997 40.492L41.0616 25.0138L42.9032 23.1906L49.5332 16.6378C50.1318 16.0122 50.2392 16.1114 50.2162 14.9595V9.07031L41.0616 18.1253L35.9279 23.1906L23.0823 35.8997C23.9985 37.3468 24.7696 38.8798 25.3844 40.4768L25.3997 40.492Z" fill="#F05411"/>
<path fill-rule="evenodd" clip-rule="evenodd" d="M27.7173 50.1115L40.4555 37.5245C40.661 37.3498 40.8227 37.1299 40.9279 36.8823C41.0331 36.6347 41.0789 36.3662 41.0617 36.098V30.5139L26.6506 44.7334C27.0153 46.4903 27.2004 48.2794 27.2031 50.0733C27.2031 50.3098 27.5024 50.2793 27.7173 50.0733V50.1115Z" fill="#D94508"/>
<path fill-rule="evenodd" clip-rule="evenodd" d="M0.107666 34.8088V42.0711L4.71183 37.494L9.8992 32.36C8.23659 31.45 6.45452 30.7747 4.6044 30.3538L2.81645 32.1312L0.107666 34.8088Z" fill="#C9C8C8"/>
<path fill-rule="evenodd" clip-rule="evenodd" d="M4.73478 42.1015L0.130615 46.6786V50.1191H3.83697L8.28767 45.7098L16.2836 37.7991C15.2494 36.4583 14.0507 35.2513 12.7153 34.2061L4.73478 42.1015Z" fill="#979695"/>
<path fill-rule="evenodd" clip-rule="evenodd" d="M13.1373 45.7099L8.67896 50.1191H15.6543L18.271 47.5254L20.0206 45.7709C19.6333 44.0082 19.0114 42.3048 18.1712 40.7056L13.1373 45.6793V45.7099Z" fill="#6B6966"/>
<path d="M59.7085 0.526365V22.2447H68.8248C75.8154 22.2447 79.1995 19.7196 79.1995 11.2825C79.1995 2.84542 75.8154 0.526365 68.8248 0.526365H59.7085ZM73.8126 11.3436C73.8126 16.9505 72.6539 17.8201 68.2339 17.8201H64.7501V4.92037H68.2339C72.6539 4.92037 73.8126 5.54591 73.8126 11.3436ZM83.3049 0.526365V22.2447H88.3541V0.526365H83.3049ZM105.934 17.8812C105.25 17.9738 104.561 18.0272 103.87 18.0414C99.4808 18.0414 97.854 17.2327 97.854 11.2444C97.854 5.25602 99.4808 4.57709 104.185 4.57709C106.008 4.58641 107.825 4.7962 109.602 5.20263L110.5 0.762848C108.256 0.258347 105.963 0.00250357 103.663 0C96.396 0 92.4441 2.28854 92.4441 11.1834C92.4441 20.0782 95.7822 22.6795 102.827 22.6795C105.626 22.6775 108.414 22.3342 111.129 21.6573V9.03212H101.614V13.3346H105.934V17.9117V17.8812ZM115.81 0.526365V22.2447H120.86V0.526365H115.81ZM135.823 22.2447V4.92037H143.098V0.526365H123.461V4.92037H130.758V22.2447H135.823ZM157.954 22.2447H163.533C161.177 16.5767 157.915 7.32334 155.859 0.526365H148.101C145.592 6.62915 142.177 16.1724 140.358 22.2447H145.73C146.106 20.9097 146.574 19.2543 147.134 17.4463H156.135C156.787 19.2848 157.447 20.9707 157.984 22.2447H157.954ZM152.076 4.88986C152.728 7.1784 153.672 10.1611 154.677 13.121H148.408C149.405 10.0696 150.411 7.16315 151.255 4.88986H152.076ZM165.121 0.526365V22.2447H180.008V17.8201H170.155V0.526365H165.121Z" fill="#252525"/>
<path d="M74.6722 28.8281C72.4598 28.1293 70.1486 27.7892 67.8274 27.8211C61.4659 27.8211 58.3965 29.8351 58.3965 35.0911C58.3965 39.035 60.5451 40.5302 65.1262 41.0184C69.1472 41.4456 69.7304 42.0864 69.7304 43.429C69.7304 45.0463 68.7175 45.504 65.5253 45.504C63.5469 45.5111 61.5752 45.2754 59.655 44.8021L58.642 49.0131C60.877 49.7054 63.2074 50.0452 65.5483 50.02C72.209 50.02 75.0329 48.3418 75.0329 43.0934C75.0329 39.035 72.8536 37.166 67.9732 36.6168C64.2975 36.243 63.6913 35.7548 63.6913 34.4122C63.6913 32.9475 64.6198 32.3372 67.812 32.3372C69.7883 32.3222 71.7584 32.558 73.6747 33.039L74.6876 28.8281H74.6722ZM88.408 49.5852V32.6423H95.5291V28.3399H76.276V32.6423H83.4278V49.5852H88.408ZM110.086 49.5852H115.557C113.255 44.0317 110.055 34.9614 108.029 28.3094H100.356C97.9233 34.3282 94.5776 43.6655 92.7973 49.5852H98.0767C98.4451 48.2731 98.9055 46.6559 99.458 44.8861H108.275C108.92 46.6864 109.564 48.3341 110.086 49.5852ZM104.315 32.5813C104.96 34.8699 105.85 37.7382 106.863 40.6446H100.724C101.706 37.6771 102.689 34.8088 103.517 32.5813H104.315ZM122.011 32.5203H127.574C128.679 32.5203 129.385 33.4052 129.385 35.3276C129.385 37.25 128.618 37.9823 127.513 37.9823H122.011V32.5203ZM129.539 40.4921C133.59 40.2785 134.91 37.6161 134.91 34.5647C134.91 31.0556 133.437 28.3399 129.047 28.3399H117.092V49.5852H122.011V41.9567H124.228C125.548 41.9567 127.083 43.757 130.367 49.5852H136.506C132.508 42.9027 130.912 40.9803 129.469 40.431L129.539 40.4921ZM148.891 49.6462V32.6423H156.013V28.3399H136.782V32.6423H143.934V49.5852L148.891 49.6462Z" fill="#FF5916"/>
</svg>
