<svg width="125" height="35" viewBox="0 0 125 35" fill="none" xmlns="http://www.w3.org/2000/svg">
<g clip-path="url(#clip0)">
<path fill-rule="evenodd" clip-rule="evenodd" d="M4.0775 16.6849L14.1489 6.69093H10.4227C10.1161 6.65357 9.80504 6.69327 9.51776 6.80641C9.23049 6.91956 8.97613 7.10257 8.77784 7.33878L0.223552 15.8246C-0.10116 16.1167 -0.0692207 16.2866 0.28743 16.2866C1.55832 16.3342 2.82455 16.4673 4.0775 16.6849Z" fill="#FFAC8F"/>
<path fill-rule="evenodd" clip-rule="evenodd" d="M10.247 19.202L19.0941 10.4294L22.8575 6.7122L29.1601 0.440766H24.7206C24.5076 0.406251 24.2891 0.431699 24.0897 0.51425C23.8904 0.596802 23.718 0.733184 23.5921 0.90807L19.0941 5.37401L17.7633 6.69096L6.86682 17.5239C8.04897 17.9732 9.18166 18.5427 10.247 19.2232V19.202Z" fill="#FF723E"/>
<path fill-rule="evenodd" clip-rule="evenodd" d="M14.6014 23.0413L21.5534 16.1379L28.4735 9.26113L34.8347 2.96846C34.8347 0.982421 34.675 0.440773 32.3913 0.440773L26.0834 6.69096L19.0941 13.6368L12.1102 20.5401C13.0172 21.2884 13.8514 22.1205 14.6014 23.0254V23.0413Z" fill="#FF5916"/>
<path fill-rule="evenodd" clip-rule="evenodd" d="M17.6196 28.1869L28.4841 17.4124L29.7617 16.1432L34.3609 11.5817C34.7761 11.1463 34.8506 11.2153 34.8346 10.4134V6.3139L28.4841 12.6172L24.9229 16.1432L16.012 24.9901C16.6476 25.9975 17.1825 27.0646 17.6089 28.1763L17.6196 28.1869Z" fill="#F05411"/>
<path fill-rule="evenodd" clip-rule="evenodd" d="M19.2272 34.8832L28.0636 26.1212C28.2062 25.9996 28.3184 25.8466 28.3914 25.6742C28.4644 25.5019 28.4961 25.3149 28.4842 25.1282V21.2411L18.4873 31.1394C18.7402 32.3624 18.8686 33.6078 18.8706 34.8566C18.8706 35.0212 19.0782 35 19.2272 34.8566V34.8832Z" fill="#D94508"/>
<path fill-rule="evenodd" clip-rule="evenodd" d="M0.0745544 24.2308V29.2861L3.26844 26.1L6.86688 22.5262C5.71354 21.8927 4.47733 21.4226 3.19391 21.1296L1.95362 22.3668L0.0745544 24.2308Z" fill="#C9C8C8"/>
<path fill-rule="evenodd" clip-rule="evenodd" d="M3.2844 29.3074L0.0905151 32.4936V34.8885H2.66159L5.74901 31.8192L11.2957 26.3124C10.5783 25.3791 9.74678 24.5388 8.82046 23.8113L3.2844 29.3074Z" fill="#979695"/>
<path fill-rule="evenodd" clip-rule="evenodd" d="M9.11319 31.8191L6.02045 34.8885H10.8592L12.6744 33.083L13.888 31.8616C13.6194 30.6346 13.188 29.4489 12.6052 28.3356L9.11319 31.7979V31.8191Z" fill="#6B6966"/>
<path d="M41.4193 0.366409V15.4847H47.7432C52.5926 15.4847 54.9401 13.727 54.9401 7.85389C54.9401 1.98073 52.5926 0.366409 47.7432 0.366409H41.4193ZM51.2032 7.89637C51.2032 11.7994 50.3994 12.4048 47.3333 12.4048H44.9166V3.42512H47.3333C50.3994 3.42512 51.2032 3.86057 51.2032 7.89637ZM57.788 0.366409V15.4847H61.2906V0.366409H57.788ZM73.4859 12.4473C73.0111 12.5117 72.533 12.549 72.054 12.5588C69.0091 12.5588 67.8806 11.9959 67.8806 7.82734C67.8806 3.65878 69.0091 3.18616 72.2722 3.18616C73.5372 3.19265 74.7976 3.33869 76.0304 3.6216L76.6532 0.531027C75.0967 0.179838 73.506 0.00174276 71.9102 0C66.8692 0 64.1278 1.59308 64.1278 7.78486C64.1278 13.9766 66.4434 15.7874 71.33 15.7874C73.2718 15.7861 75.2062 15.5471 77.0897 15.0759V6.28736H70.489V9.28235H73.4859V12.4685V12.4473ZM80.3368 0.366409V15.4847H83.8394V0.366409H80.3368ZM94.2195 15.4847V3.42512H99.2659V0.366409H85.6439V3.42512H90.7062V15.4847H94.2195ZM109.571 15.4847H113.441C111.807 11.5392 109.545 5.09786 108.118 0.366409H102.737C100.996 4.61463 98.6271 11.2578 97.3655 15.4847H101.092C101.353 14.5555 101.677 13.4031 102.066 12.1446H108.31C108.762 13.4244 109.22 14.5979 109.593 15.4847H109.571ZM105.494 3.40388C105.946 4.99696 106.601 7.07328 107.298 9.13367H102.949C103.641 7.00956 104.339 4.98634 104.924 3.40388H105.494ZM114.543 0.366409V15.4847H124.87V12.4048H118.035V0.366409H114.543Z" fill="white"/>
<path d="M51.7995 20.0675C50.2648 19.581 48.6615 19.3443 47.0513 19.3665C42.6384 19.3665 40.5091 20.7685 40.5091 24.4272C40.5091 27.1726 41.9996 28.2135 45.1775 28.5533C47.9668 28.8507 48.3714 29.2968 48.3714 30.2314C48.3714 31.3571 47.6687 31.6758 45.4543 31.6758C44.0819 31.6807 42.7142 31.5166 41.3821 31.1872L40.6795 34.1185C42.2299 34.6004 43.8464 34.837 45.4703 34.8194C50.0908 34.8194 52.0497 33.6512 52.0497 29.9977C52.0497 27.1726 50.5379 25.8716 47.1524 25.4893C44.6026 25.2291 44.1821 24.8892 44.1821 23.9546C44.1821 22.9351 44.8262 22.5102 47.0406 22.5102C48.4116 22.4998 49.7782 22.6639 51.1075 22.9988L51.8101 20.0675H51.7995ZM61.3279 34.5168V22.7226H66.2678V19.7276H52.912V22.7226H57.8732V34.5168H61.3279ZM76.3658 34.5168H80.1612C78.5642 30.6509 76.3445 24.337 74.9392 19.7064H69.616C67.9286 23.8962 65.6077 30.396 64.3728 34.5168H68.0351C68.2906 33.6034 68.61 32.4776 68.9932 31.2456H75.1095C75.5567 32.4989 76.0038 33.6459 76.3658 34.5168ZM72.3628 22.6802C72.8099 24.2732 73.4274 26.2699 74.1301 28.2931H69.8715C70.5529 26.2274 71.2343 24.2308 71.8092 22.6802H72.3628ZM84.6379 22.6377H88.4972C89.2637 22.6377 89.7535 23.2537 89.7535 24.5919C89.7535 25.93 89.2212 26.4398 88.4546 26.4398H84.6379V22.6377ZM89.8599 28.1869C92.6706 28.0382 93.5861 26.1849 93.5861 24.0608C93.5861 21.6181 92.5641 19.7276 89.5193 19.7276H81.2258V34.5168H84.6379V29.2065H86.1763C87.0919 29.2065 88.1565 30.4597 90.4348 34.5168H94.6933C91.92 29.865 90.8128 28.5268 89.812 28.1444L89.8599 28.1869ZM103.285 34.5592V22.7226H108.225V19.7276H94.885V22.7226H99.8461V34.5168L103.285 34.5592Z" fill="#FF5916"/>
</g>
<defs>
<clipPath id="clip0">
<rect width="124.865" height="35" fill="white"/>
</clipPath>
</defs>
</svg>
