<svg width="32" height="48" viewBox="0 0 32 48" fill="none" xmlns="http://www.w3.org/2000/svg">
<path fill-rule="evenodd" clip-rule="evenodd" d="M9.96491 7.36283V4.38938V4.10619H10.2456H13.0526H13.3333V4.38938V7.36283V7.64602H13.0526H10.2456H9.96491V7.36283ZM26.9474 27.0442C26.2456 27.1858 25.5439 27.3274 24.8421 27.3274C24.1404 27.3274 23.4386 27.469 22.7368 27.469C21.614 27.469 20.6316 27.3274 19.7895 27.1858C18.9474 26.9027 18.2456 26.6195 17.8246 26.1947C17.6842 26.0531 17.5439 25.9115 17.4035 25.7699C17.2632 25.6283 17.2632 25.4867 17.1228 25.2035C16.7018 24.2124 16.4211 22.9381 16.4211 21.2389V13.1681V10.9027V7.78761H19.9298V10.7611H26.5263H26.807V11.0442V13.1681V13.4513H26.5263H19.9298V21.5221C19.9298 21.9469 19.9298 22.3717 19.9298 22.6549V22.7965C19.9298 23.0796 19.9298 23.2212 20.0702 23.3628V23.5044C20.0702 23.5044 20.0702 23.5044 20.0702 23.646C20.2105 23.7876 20.3509 23.9292 20.4912 24.2124C20.7719 24.354 21.193 24.4956 21.614 24.6372C22.0351 24.7788 22.5965 24.7788 23.1579 24.7788C23.7193 24.7788 24.2807 24.7788 24.8421 24.6372H25.1228C25.5439 24.6372 26.1053 24.4956 26.5263 24.354L26.9474 24.2124V24.6372V26.7611V26.9027V27.0442ZM9.96491 26.7611V13.4513H4.63158H4.35088V13.1681V11.0442V10.6195H4.63158H13.193H13.4737V10.9027V26.6195V26.9027H13.0526H10.2456H9.96491V26.7611ZM4.35088 36.6726C4.77193 36.6726 5.19298 36.6726 5.61404 36.8142C6.03509 36.9558 6.31579 37.2389 6.59649 37.5221C6.87719 37.9469 7.01754 38.3717 7.15789 38.7965C7.29825 39.2212 7.29825 39.7876 7.29825 40.4956C7.29825 41.2035 7.15789 41.7699 7.01754 42.3363C7.01754 42.4779 7.01754 42.4779 6.87719 42.6195C6.73684 43.0442 6.45614 43.469 6.31579 43.8938C6.03509 44.3186 5.61404 44.6018 5.19298 44.885C4.77193 45.1681 4.35088 45.1681 3.78947 45.1681C3.36842 45.1681 2.94737 45.0266 2.52632 44.885C2.52632 44.885 2.38597 44.885 2.38597 44.7434C2.24561 44.6018 1.96491 44.4602 1.82456 44.3186V47.8584H0.140351V36.531C1.54386 36.6726 2.94737 36.6726 4.35088 36.6726ZM1.82456 42.9027C2.10526 43.1858 2.38596 43.469 2.80702 43.6106C3.08772 43.7522 3.36842 43.8938 3.64912 43.8938C3.92982 43.8938 4.21053 43.8938 4.35088 43.7522H4.49123C4.63158 43.6106 4.77193 43.469 4.91228 43.1858C5.05263 43.0442 5.05263 42.9027 5.05263 42.7611C5.05263 42.6195 5.19298 42.4779 5.19298 42.1947C5.33333 41.7699 5.33333 41.3451 5.33333 40.9204C5.33333 40.0708 5.19298 39.3628 4.91228 38.9381C4.63158 38.5133 4.35088 38.3717 3.78947 38.3717H1.82456V42.9027ZM29.193 36.6726H31.1579L27.7895 40.4956L31.8596 45.0265H29.4737L25.5439 40.6372L29.193 36.6726ZM23.8596 44.885V33.9823H25.6842V44.885V45.0265H25.5439H24.1404H23.8596V44.885ZM16.7018 36.6726H18.5263V37.8053C18.6667 37.6637 18.807 37.5221 18.9474 37.3805C19.6491 36.8142 20.3509 36.3894 21.3333 36.3894C21.614 36.3894 21.7544 36.3894 22.0351 36.3894C22.3158 36.3894 22.5965 36.531 22.8772 36.531H23.0175V36.8142V39.0796V39.2212H22.8772H21.7544H21.614V39.0796V38.2301H21.4737C21.3333 38.2301 21.3333 38.2301 21.193 38.2301C20.9123 38.2301 20.6316 38.2301 20.4912 38.3717C20.2105 38.3717 20.0702 38.5133 19.7895 38.6549C19.6491 38.7965 19.3684 38.9381 19.2281 39.2212C19.0877 39.3628 18.807 39.646 18.6667 39.9292V45.3097H16.8421V36.6726H16.7018ZM13.193 44.177C12.7719 44.4602 12.3509 44.7434 12.0702 44.885C11.6491 45.0266 11.2281 45.1681 10.6667 45.1681C9.82456 45.1681 9.26316 44.885 8.70175 44.4602C8.42105 44.177 8.2807 44.0354 8.14035 43.7522C8 43.469 8 43.1858 8 42.7611C8 42.3363 8.14035 41.9115 8.2807 41.4867C8.2807 41.4867 8.2807 41.3451 8.42105 41.3451C8.5614 41.0619 8.8421 40.7788 9.26316 40.6372C9.40351 40.4956 9.68421 40.354 9.82456 40.354C10.1053 40.2124 10.2456 40.2124 10.5263 40.0708C11.0877 39.9292 11.6491 39.9292 12.2105 39.9292H12.9123V39.3628C12.9123 39.0796 12.9123 38.9381 12.7719 38.6549C12.7719 38.6549 12.7719 38.6549 12.7719 38.5133C12.6316 38.5133 12.6316 38.3717 12.4912 38.2301C12.4912 38.2301 12.4912 38.2301 12.3509 38.0885C12.3509 38.0885 12.2105 38.0885 12.2105 37.9469C11.9298 37.8053 11.6491 37.8053 11.2281 37.8053C10.807 37.8053 10.386 37.8053 9.96491 37.9469C9.54386 38.0885 9.12281 38.2301 8.70175 38.5133L8.42105 38.6549V38.3717V37.0973V36.9558H8.5614C8.70175 36.9558 8.84211 36.8142 8.98246 36.8142C9.12281 36.8142 9.26316 36.6726 9.40351 36.6726C10.1053 36.531 10.807 36.3894 11.5088 36.3894C12.6316 36.3894 13.3333 36.6726 13.7544 37.0973L13.8947 37.2389C13.8947 37.3805 14.0351 37.3805 14.0351 37.5221C14.3158 37.9469 14.3158 38.5133 14.3158 39.2212V42.6195C14.3158 42.9027 14.3158 43.0442 14.3158 43.1858C14.3158 43.3274 14.3158 43.469 14.4561 43.469C14.5965 43.469 14.5965 43.6106 14.8772 43.6106H15.0175C15.1579 43.6106 15.1579 43.6106 15.2982 43.6106H15.4386V44.885H15.2982C15.1579 44.885 15.1579 44.885 15.1579 44.885C14.8772 45.0266 14.5965 45.0265 14.4561 45.0265C14.1754 45.0265 13.8947 45.0266 13.7544 44.885C13.614 44.885 13.614 44.7434 13.614 44.7434C13.4737 44.885 13.3333 44.6018 13.193 44.177ZM12.7719 42.9027V41.0619H12.4912C11.5088 41.0619 10.807 41.2035 10.386 41.4867C9.96491 41.7699 9.68421 42.0531 9.68421 42.6195C9.68421 42.7611 9.68421 42.9027 9.82456 43.0442C9.82456 43.1858 9.96491 43.1858 10.1053 43.3274C10.1053 43.3274 10.1053 43.3274 10.2456 43.469C10.2456 43.469 10.2456 43.469 10.386 43.6106C10.5263 43.7522 10.807 43.7522 11.0877 43.7522C11.5088 43.7522 12.2105 43.469 12.7719 42.9027ZM26.9474 0L31.1579 4.24779V31.4336H4.21053L0 27.1858V0H26.9474Z" fill="#FF5916"/>
</svg>
