<svg width="112" height="39" viewBox="0 0 112 39" fill="none" xmlns="http://www.w3.org/2000/svg">
<path d="M111 38L83.5937 2.0797C83.1848 1.54384 82.3738 1.55768 81.9834 2.10717L57.2598 36.9117C56.8735 37.4556 56.073 37.4758 55.6596 36.9521L28.1103 2.0479C27.6969 1.52421 26.8964 1.54444 26.5101 2.08834L0.999995 38" stroke="url(#paint0_linear)" stroke-width="2"/>
<path opacity="0.1" d="M111 1L83.5937 36.9203C83.1848 37.4562 82.3738 37.4423 81.9834 36.8928L57.2598 2.08834C56.8735 1.54444 56.073 1.52421 55.6596 2.0479L28.1103 36.9521C27.6969 37.4758 26.8964 37.4556 26.5101 36.9117L1 1" stroke="url(#paint1_linear)" stroke-width="2"/>
<defs>
<linearGradient id="paint0_linear" x1="111" y1="19.5" x2="68.5485" y2="19.2341" gradientUnits="userSpaceOnUse">
<stop stop-color="#FF5916" stop-opacity="0"/>
<stop offset="1" stop-color="#FF5916"/>
</linearGradient>
<linearGradient id="paint1_linear" x1="111" y1="19.5" x2="1" y2="19.5" gradientUnits="userSpaceOnUse">
<stop stop-color="#979695" stop-opacity="0"/>
<stop offset="1" stop-color="#979695"/>
</linearGradient>
</defs>
</svg>
